<svg xmlns="http://www.w3.org/2000/svg" width="600" height="340" viewBox="0 0 600 340"><line x1="374" y1="252" x2="370" y2="274" stroke="#9fc4e8" stroke-width="1.5" stroke-linecap="round" opacity="0.68"/><line x1="444" y1="314" x2="440" y2="328" stroke="#9fc4e8" stroke-width="1.5" stroke-linecap="round" opacity="0.51"/><line x1="566" y1="221" x2="562" y2="244" stroke="#9fc4e8" stroke-width="1.5" stroke-linecap="round" opacity="0.39"/><line x1="281" y1="84" x2="277" y2="103" stroke="#9fc4e8" stroke-width="1.5" stroke-linecap="round" opacity="0.55"/><line x1="8" y1="74" x2="4" y2="90" stroke="#9fc4e8" stroke-width="1.5" stroke-linecap="round" opacity="0.67"/><line x1="608" y1="74" x2="604" y2="95" stroke="#9fc4e8" stroke-width="1.5" stroke-linecap="round" opacity="0.41"/><line x1="478" y1="47" x2="474" y2="67" stroke="#9fc4e8" stroke-width="1.5" stroke-linecap="round" opacity="0.39"/><line x1="1" y1="296" x2="-3" y2="312" stroke="#9fc4e8" stroke-width="1.5" stroke-linecap="round" opacity="0.43"/><line x1="601" y1="296" x2="597" y2="320" stroke="#9fc4e8" stroke-width="1.5" stroke-linecap="round" opacity="0.66"/><line x1="174" y1="327" x2="170" y2="346" stroke="#9fc4e8" stroke-width="1.5" stroke-linecap="round" opacity="0.59"/><line x1="174" y1="-13" x2="170" y2="3" stroke="#9fc4e8" stroke-width="1.5" stroke-linecap="round" opacity="0.68"/><line x1="414" y1="329" x2="410" y2="352" stroke="#9fc4e8" stroke-width="1.5" stroke-linecap="round" opacity="0.45"/><line x1="414" y1="-11" x2="410" y2="6" stroke="#9fc4e8" stroke-width="1.5" stroke-linecap="round" opacity="0.41"/><line x1="87" y1="22" x2="83" y2="39" stroke="#9fc4e8" stroke-width="1.5" stroke-linecap="round" opacity="0.56"/><line x1="87" y1="362" x2="83" y2="376" stroke="#9fc4e8" stroke-width="1.5" stroke-linecap="round" opacity="0.59"/><line x1="203" y1="105" x2="199" y2="128" stroke="#9fc4e8" stroke-width="1.5" stroke-linecap="round" opacity="0.52"/><line x1="189" y1="164" x2="185" y2="185" stroke="#9fc4e8" stroke-width="1.5" stroke-linecap="round" opacity="0.37"/><line x1="585" y1="8" x2="581" y2="29" stroke="#9fc4e8" stroke-width="1.5" stroke-linecap="round" opacity="0.65"/><line x1="585" y1="348" x2="581" y2="362" stroke="#9fc4e8" stroke-width="1.5" stroke-linecap="round" opacity="0.63"/><line x1="-15" y1="8" x2="-19" y2="25" stroke="#9fc4e8" stroke-width="1.5" stroke-linecap="round" opacity="0.55"/><line x1="-15" y1="348" x2="-19" y2="362" stroke="#9fc4e8" stroke-width="1.5" stroke-linecap="round" opacity="0.37"/><line x1="109" y1="325" x2="105" y2="341" stroke="#9fc4e8" stroke-width="1.5" stroke-linecap="round" opacity="0.61"/><line x1="109" y1="-15" x2="105" y2="8" stroke="#9fc4e8" stroke-width="1.5" stroke-linecap="round" opacity="0.68"/><line x1="207" y1="121" x2="203" y2="140" stroke="#9fc4e8" stroke-width="1.5" stroke-linecap="round" opacity="0.62"/><line x1="65" y1="254" x2="61" y2="276" stroke="#9fc4e8" stroke-width="1.5" stroke-linecap="round" opacity="0.65"/><line x1="22" y1="322" x2="18" y2="336" stroke="#9fc4e8" stroke-width="1.5" stroke-linecap="round" opacity="0.47"/><line x1="22" y1="-18" x2="18" y2="2" stroke="#9fc4e8" stroke-width="1.5" stroke-linecap="round" opacity="0.67"/><line x1="622" y1="322" x2="618" y2="339" stroke="#9fc4e8" stroke-width="1.5" stroke-linecap="round" opacity="0.67"/><line x1="622" y1="-18" x2="618" y2="1" stroke="#9fc4e8" stroke-width="1.5" stroke-linecap="round" opacity="0.46"/><line x1="190" y1="60" x2="186" y2="75" stroke="#9fc4e8" stroke-width="1.5" stroke-linecap="round" opacity="0.40"/><line x1="414" y1="339" x2="410" y2="355" stroke="#9fc4e8" stroke-width="1.5" stroke-linecap="round" opacity="0.37"/><line x1="414" y1="-1" x2="410" y2="23" stroke="#9fc4e8" stroke-width="1.5" stroke-linecap="round" opacity="0.54"/><line x1="244" y1="81" x2="240" y2="101" stroke="#9fc4e8" stroke-width="1.5" stroke-linecap="round" opacity="0.64"/><line x1="273" y1="143" x2="269" y2="158" stroke="#9fc4e8" stroke-width="1.5" stroke-linecap="round" opacity="0.67"/><line x1="20" y1="168" x2="16" y2="190" stroke="#9fc4e8" stroke-width="1.5" stroke-linecap="round" opacity="0.40"/><line x1="620" y1="168" x2="616" y2="189" stroke="#9fc4e8" stroke-width="1.5" stroke-linecap="round" opacity="0.68"/><line x1="378" y1="268" x2="374" y2="283" stroke="#9fc4e8" stroke-width="1.5" stroke-linecap="round" opacity="0.50"/><line x1="90" y1="287" x2="86" y2="304" stroke="#9fc4e8" stroke-width="1.5" stroke-linecap="round" opacity="0.51"/><line x1="600" y1="290" x2="596" y2="314" stroke="#9fc4e8" stroke-width="1.5" stroke-linecap="round" opacity="0.51"/><line x1="-0" y1="290" x2="-4" y2="309" stroke="#9fc4e8" stroke-width="1.5" stroke-linecap="round" opacity="0.61"/><line x1="287" y1="99" x2="283" y2="117" stroke="#9fc4e8" stroke-width="1.5" stroke-linecap="round" opacity="0.40"/></svg>