<svg xmlns="http://www.w3.org/2000/svg" width="900" height="96" viewBox="0 0 900 96"><rect x="0" y="26" width="900" height="70" fill="#4a7fa8" opacity="0.30"/><rect x="0" y="26" width="900" height="2" fill="#bcd9f0" opacity="0.38"/><rect x="719" y="57" width="103" height="1.3" rx="0.6" fill="#cfe6f7" opacity="0.18"/><rect x="628" y="64" width="164" height="1.3" rx="0.6" fill="#cfe6f7" opacity="0.18"/><rect x="86" y="42" width="199" height="1.3" rx="0.6" fill="#cfe6f7" opacity="0.12"/><rect x="516" y="45" width="129" height="1.3" rx="0.6" fill="#cfe6f7" opacity="0.12"/><rect x="658" y="44" width="136" height="1.3" rx="0.6" fill="#cfe6f7" opacity="0.11"/><rect x="695" y="85" width="110" height="1.3" rx="0.6" fill="#cfe6f7" opacity="0.13"/><rect x="685" y="86" width="199" height="1.3" rx="0.6" fill="#cfe6f7" opacity="0.18"/><path d="M99 30l-2.2 -4.5M102 29l0 -5.5M105 30l2.2 -4.5" stroke="#e8f4fd" stroke-width="1.2" fill="none" stroke-linecap="round" opacity="0.55"/><ellipse cx="102" cy="30" rx="2.5" ry="0.8" fill="none" stroke="#e8f4fd" stroke-width="1.1" opacity="0.5"/><circle cx="97" cy="23" r="0.9" fill="#e8f4fd" opacity="0.4"/><circle cx="107.5" cy="24" r="0.8" fill="#e8f4fd" opacity="0.35"/><path d="M616.1 42l-2.9 -5.9M620 41l0 -7.2M623.9 42l2.9 -5.9" stroke="#e8f4fd" stroke-width="1.2" fill="none" stroke-linecap="round" opacity="0.55"/><ellipse cx="620" cy="42" rx="3.3" ry="1" fill="none" stroke="#e8f4fd" stroke-width="1.1" opacity="0.5"/><circle cx="613.5" cy="32.9" r="0.9" fill="#e8f4fd" opacity="0.4"/><circle cx="627.2" cy="34.2" r="0.8" fill="#e8f4fd" opacity="0.35"/><ellipse cx="305" cy="36" rx="6.9" ry="2" fill="none" stroke="#dceffc" stroke-width="1.1" opacity="0.38"/><ellipse cx="746" cy="31" rx="5.7" ry="1.6" fill="none" stroke="#dceffc" stroke-width="1.1" opacity="0.38"/><ellipse cx="470" cy="29" rx="10.8" ry="3.1" fill="none" stroke="#dceffc" stroke-width="1" opacity="0.16"/><ellipse cx="470" cy="29" rx="6.8" ry="1.9" fill="none" stroke="#dceffc" stroke-width="1" opacity="0.1"/><ellipse cx="860" cy="38" rx="14.4" ry="4.1" fill="none" stroke="#dceffc" stroke-width="1" opacity="0.16"/><ellipse cx="860" cy="38" rx="9" ry="2.5" fill="none" stroke="#dceffc" stroke-width="1" opacity="0.1"/></svg>
