<svg xmlns="http://www.w3.org/2000/svg" width="1200" height="90" viewBox="0 0 1200 90"><defs><linearGradient id="m0" x1="0" y1="0" x2="0" y2="1"><stop offset="0" stop-color="#fff" stop-opacity="0.03"/><stop offset="1" stop-color="#fff" stop-opacity="0.09"/></linearGradient><linearGradient id="m1" x1="0" y1="0" x2="0" y2="1"><stop offset="0" stop-color="#fff" stop-opacity="0.06"/><stop offset="1" stop-color="#fff" stop-opacity="0.16"/></linearGradient><linearGradient id="m2" x1="0" y1="0" x2="0" y2="1"><stop offset="0" stop-color="#fff" stop-opacity="0.16"/><stop offset="1" stop-color="#fff" stop-opacity="0.32"/></linearGradient></defs><path d="M0,90 L0,48 Q100,36 200,48 Q300,32 400,48 Q500,38 600,48 Q700,33 800,48 Q900,40 1000,48 Q1100,35 1200,48 L1200,90 Z" fill="url(#m0)"/><path d="M0,90 L0,58 Q75,40 150,58 Q225,38 300,58 Q375,34 450,58 Q525,44 600,58 Q675,43 750,58 Q825,46 900,58 Q975,44 1050,58 Q1125,46 1200,58 L1200,90 Z" fill="url(#m1)"/><path d="M0,90 L0,70 Q47,60 95,70 Q142,57 190,70 Q237,52 285,70 Q332,55 380,70 Q427,58 475,70 Q522,58 570,70 Q617,55 665,70 Q712,59 760,70 Q807,61 855,70 Q902,54 950,70 Q997,56 1045,70 Q1092,61 1140,70 Q1187,64 1200,68 L1200,90 Z" fill="url(#m2)"/><path d="M62 71.8Q62.5 73.5 64.2 74Q62.5 74.5 62 76.2Q61.5 74.5 59.8 74Q61.5 73.5 62 71.8Z" fill="#fff" opacity="0.35"/><path d="M214 64.6Q214.3 65.7 215.4 66Q214.3 66.3 214 67.4Q213.7 66.3 212.6 66Q213.7 65.7 214 64.6Z" fill="#fff" opacity="0.54"/><path d="M333 70Q333.4 71.6 335 72Q333.4 72.4 333 74Q332.6 72.4 331 72Q332.6 71.6 333 70Z" fill="#fff" opacity="0.45"/><path d="M449 62.1Q449.4 63.6 450.9 64Q449.4 64.4 449 65.9Q448.6 64.4 447.1 64Q448.6 63.6 449 62.1Z" fill="#fff" opacity="0.41"/><path d="M561 72Q561.4 73.6 563 74Q561.4 74.4 561 76Q560.6 74.4 559 74Q560.6 73.6 561 72Z" fill="#fff" opacity="0.53"/><path d="M706 66.4Q706.4 67.6 707.6 68Q706.4 68.4 706 69.6Q705.6 68.4 704.4 68Q705.6 67.6 706 66.4Z" fill="#fff" opacity="0.3"/><path d="M836 70.6Q836.5 72.5 838.4 73Q836.5 73.5 836 75.4Q835.5 73.5 833.6 73Q835.5 72.5 836 70.6Z" fill="#fff" opacity="0.55"/><path d="M921 59.8Q921.5 61.5 923.2 62Q921.5 62.5 921 64.2Q920.5 62.5 918.8 62Q920.5 61.5 921 59.8Z" fill="#fff" opacity="0.3"/><path d="M1071 68.2Q1071.4 69.6 1072.8 70Q1071.4 70.4 1071 71.8Q1070.6 70.4 1069.2 70Q1070.6 69.6 1071 68.2Z" fill="#fff" opacity="0.49"/><path d="M1158 73.1Q1158.4 74.6 1159.9 75Q1158.4 75.4 1158 76.9Q1157.6 75.4 1156.1 75Q1157.6 74.6 1158 73.1Z" fill="#fff" opacity="0.45"/></svg>
