<svg xmlns="http://www.w3.org/2000/svg" width="640" height="360" viewBox="0 0 640 360"><defs><radialGradient id="gf"><stop offset="0" stop-color="#fff" stop-opacity="0.95"/><stop offset="0.32" stop-color="#fff" stop-opacity="0.5"/><stop offset="1" stop-color="#fff" stop-opacity="0"/></radialGradient></defs><circle cx="564.9" cy="289.4" r="4.9" fill="url(#gf)" opacity="0.81"/><circle cx="72.1" cy="86.4" r="6" fill="url(#gf)" opacity="0.75"/><circle cx="295" cy="75.6" r="6.6" fill="url(#gf)" opacity="0.88"/><circle cx="267.2" cy="302.7" r="6.4" fill="url(#gf)" opacity="0.71"/><circle cx="345.7" cy="32.1" r="6.1" fill="url(#gf)" opacity="0.69"/><circle cx="364.2" cy="251.3" r="4.7" fill="url(#gf)" opacity="0.86"/><circle cx="540.3" cy="104.9" r="6.9" fill="url(#gf)" opacity="0.7"/><circle cx="505" cy="250.7" r="2.3" fill="#fff" opacity="0.71"/><circle cx="602" cy="125.4" r="2" fill="#fff" opacity="0.58"/><circle cx="47.4" cy="196.2" r="3" fill="#fff" opacity="0.77"/><circle cx="531.7" cy="51.4" r="2.6" fill="#fff" opacity="0.59"/><circle cx="583.1" cy="282.3" r="2.7" fill="#fff" opacity="0.8"/><circle cx="325.1" cy="328" r="3.2" fill="#fff" opacity="0.93"/><circle cx="151.4" cy="211.1" r="2.8" fill="#fff" opacity="0.79"/><circle cx="32" cy="66.6" r="2.7" fill="#fff" opacity="0.74"/><circle cx="357.1" cy="101.1" r="2" fill="#fff" opacity="0.81"/><circle cx="123.8" cy="254.2" r="2.8" fill="#fff" opacity="0.95"/><circle cx="387.2" cy="194.8" r="2.9" fill="#fff" opacity="0.6"/><circle cx="120.1" cy="44.3" r="2" fill="#fff" opacity="0.81"/><circle cx="466.9" cy="232.5" r="3.4" fill="#fff" opacity="0.69"/><circle cx="304.3" cy="315.6" r="3.3" fill="#fff" opacity="0.7"/><circle cx="257.2" cy="230.3" r="3" fill="#fff" opacity="0.81"/><circle cx="596" cy="52.2" r="1.9" fill="#fff" opacity="0.66"/><circle cx="32.8" cy="301.7" r="2.9" fill="#fff" opacity="0.75"/><circle cx="214.3" cy="105.7" r="2.8" fill="#fff" opacity="0.64"/><path d="M497.3 68.6L499.3 64.5M498.4 66.3L499.9 65.8M498.4 66.3L497.9 64.8M497.3 68.6L501.9 68.3M499.8 68.4L501 69.4M499.8 68.4L500.8 67.2M497.3 68.6L499.9 72.4M498.7 70.7L498.4 72.2M498.7 70.7L500.2 71M497.3 68.6L495.3 72.7M496.2 70.9L494.7 71.4M496.2 70.9L496.7 72.4M497.3 68.6L492.7 68.9M494.8 68.8L493.6 67.8M494.8 68.8L493.8 70M497.3 68.6L494.7 64.8M495.9 66.5L496.2 65M495.9 66.5L494.4 66.2" stroke="#fff" stroke-width="1" stroke-linecap="round" fill="none" opacity="0.41"/><circle cx="497.3" cy="68.6" r="0.7" fill="#fff" opacity="0.41"/><path d="M377.9 327L381.7 322.8M380 324.7L381.9 324.6M380 324.7L379.9 322.7M377.9 327L383.5 328.2M381 327.7L382 329.3M381 327.7L382.6 326.6M377.9 327L379.7 332.4M378.9 330L378 331.7M378.9 330L380.6 330.9M377.9 327L374.1 331.2M375.8 329.3L373.9 329.4M375.8 329.3L375.9 331.3M377.9 327L372.3 325.8M374.8 326.3L373.8 324.7M374.8 326.3L373.2 327.4M377.9 327L376.1 321.6M376.9 324L377.8 322.3M376.9 324L375.2 323.1" stroke="#fff" stroke-width="1" stroke-linecap="round" fill="none" opacity="0.37"/><circle cx="377.9" cy="327" r="0.9" fill="#fff" opacity="0.37"/><path d="M299.2 135.1L301.5 131.1M300.5 132.9L302 132.5M300.5 132.9L300.1 131.4M299.2 135.1L303.8 135.1M301.7 135.1L302.8 136.2M301.7 135.1L302.8 134M299.2 135.1L301.5 139.1M300.5 137.3L300.1 138.8M300.5 137.3L302 137.7M299.2 135.1L296.9 139.1M297.9 137.3L296.4 137.7M297.9 137.3L298.3 138.8M299.2 135.1L294.6 135.1M296.7 135.1L295.6 134M296.7 135.1L295.6 136.2M299.2 135.1L296.9 131.1M297.9 132.9L298.3 131.4M297.9 132.9L296.4 132.5" stroke="#fff" stroke-width="1" stroke-linecap="round" fill="none" opacity="0.35"/><circle cx="299.2" cy="135.1" r="0.7" fill="#fff" opacity="0.35"/><path d="M347.1 176.7Q347.7 179 350 179.6Q347.7 180.2 347.1 182.5Q346.5 180.2 344.2 179.6Q346.5 179 347.1 176.7Z" fill="#fff" opacity="0.27"/><path d="M516.1 304.7Q516.5 306.3 518.1 306.7Q516.5 307.1 516.1 308.7Q515.7 307.1 514.1 306.7Q515.7 306.3 516.1 304.7Z" fill="#fff" opacity="0.38"/><path d="M267.1 343.2Q267.6 344.9 269.3 345.4Q267.6 345.9 267.1 347.6Q266.6 345.9 264.9 345.4Q266.6 344.9 267.1 343.2Z" fill="#fff" opacity="0.34"/></svg>
